<svg xmlns="http://www.w3.org/2000/svg" viewBox="0 0 64.12 64.52"><defs><style>.cls-1{fill:#3c363c;fill-rule:evenodd;}</style></defs><g id="Layer_2" data-name="Layer 2"><g id="Layer_3" data-name="Layer 3"><path class="cls-1" d="M24.2,29.19c-2.56,0-5.13,0-7.76,0v-1c0-1.5,0-3,0-4.49,0-.31.06-.46.43-.46h7.21A1.89,1.89,0,0,1,26,24.79a5.74,5.74,0,0,1-.06,3A1.79,1.79,0,0,1,24.2,29.19Z"/><path class="cls-1" d="M27.08,36.37a7.24,7.24,0,0,1-.22,2.32,2.58,2.58,0,0,1-2.75,1.93c-2.5.06-5,0-7.55,0,0,0,0,0-.09-.06V33.43h7.4A3,3,0,0,1,27.08,36.37Z"/><path class="cls-1" d="M44.86,29.31a4.57,4.57,0,0,0-5,3.82.64.64,0,0,0,0,.24h8.74V33C48.32,31,47.22,29.46,44.86,29.31Zm0,0a4.57,4.57,0,0,0-5,3.82.64.64,0,0,0,0,.24h8.74V33C48.32,31,47.22,29.46,44.86,29.31ZM59.38,0H4.74A4.71,4.71,0,0,0,0,4.65V59.9a4.68,4.68,0,0,0,4.74,4.62H59.38a4.66,4.66,0,0,0,4.74-4.62V4.65A4.69,4.69,0,0,0,59.38,0ZM38.54,20.32c0-.3.09-.39.4-.39H49.42c.27,0,.4.09.36.36V23c0,.31-.12.37-.39.37H39c-.37,0-.52-.09-.49-.46ZM32.24,41A6.9,6.9,0,0,1,27.72,45a11.32,11.32,0,0,1-3.61.58H10.76c-.19,0-.37,0-.58,0V18.4c.15,0,.27,0,.39,0,4.77,0,9.57,0,14.37,0A7,7,0,0,1,30.56,21,6.61,6.61,0,0,1,32,24.91a6.09,6.09,0,0,1-.74,3.73,4.71,4.71,0,0,1-3,2.1,4.39,4.39,0,0,1,4,2.94A9.45,9.45,0,0,1,32.24,41Zm21.67-4.12a1.84,1.84,0,0,1-.58.15H39.91a4,4,0,0,0,1.93,4,6,6,0,0,0,5.62.07,2.58,2.58,0,0,0,1.41-2c0-.15.15-.34.24-.34h4.56a6.23,6.23,0,0,1-.4,2.69,6.31,6.31,0,0,1-4.22,3.85,13.58,13.58,0,0,1-9.26-.06,8.18,8.18,0,0,1-5.23-5.5,11.88,11.88,0,0,1,1-9.9,8.6,8.6,0,0,1,6.3-4.4,12,12,0,0,1,6.57.46,7.85,7.85,0,0,1,4.43,4.24,12.17,12.17,0,0,1,1,3.76c0,.1.06.16.06.22Zm-9-7.61a4.57,4.57,0,0,0-5,3.82.64.64,0,0,0,0,.24h8.74V33C48.32,31,47.22,29.46,44.86,29.31Z"/></g></g></svg>