<svg xmlns="http://www.w3.org/2000/svg" viewBox="0 0 64.12 64.52"><defs><style>.cls-1,.cls-2{fill:#3c363c;}.cls-2{fill-rule:evenodd;}</style></defs><g id="Layer_2" data-name="Layer 2"><g id="Layer_3" data-name="Layer 3"><g id="layer1"><g id="g3019"><path class="cls-1" d="M59.38,0H4.74A4.71,4.71,0,0,0,0,4.65V59.9a4.68,4.68,0,0,0,4.74,4.62H59.38a4.66,4.66,0,0,0,4.74-4.62V4.65A4.69,4.69,0,0,0,59.38,0ZM19.44,54H9.75V24.88h9.69ZM14.61,20.9h-.06a5,5,0,0,1-5.35-5c0-2.87,2.14-5,5.47-5a5,5,0,0,1,5.41,5C20.08,18.67,18,20.9,14.61,20.9ZM54.37,54H44.68V38.45c0-4-1.4-6.61-4.92-6.61a5.3,5.3,0,0,0-4.95,3.55,6.07,6.07,0,0,0-.34,2.35V54H24.82s.12-26.4,0-29.15h9.65V29a9.67,9.67,0,0,1,8.74-4.83c6.36,0,11.16,4.16,11.16,13.12ZM34.47,29.12V29s0,.06-.06.09Z"/><path class="cls-2" d="M34.47,29v.09h-.06S34.44,29.06,34.47,29Z"/></g></g></g></g></svg>