<svg xmlns="http://www.w3.org/2000/svg" viewBox="0 0 68.3 40.67"><defs><style>.cls-1{fill:#e006ff;}</style></defs><g id="Layer_2" data-name="Layer 2"><g id="Layer_3" data-name="Layer 3"><polygon class="cls-1" points="13.93 6.42 6.4 13.96 0 20.37 6.4 26.79 13.85 34.25 20.26 40.67 26.66 34.25 34.19 26.71 40.59 20.3 48 12.87 51.75 16.62 58.15 10.21 54.41 6.45 48 0.04 41.6 6.45 34.19 13.88 27.79 20.3 20.26 27.84 12.81 20.37 20.33 12.83 24.06 16.56 30.46 10.15 26.74 6.42 20.33 0 13.93 6.42"/><polygon class="cls-1" points="54.48 34.21 61.9 26.79 68.3 20.37 61.9 13.96 55.49 20.37 48.08 27.8 44.34 24.05 37.93 30.46 41.68 34.21 48.08 40.63 54.48 34.21"/></g></g></svg>